<svg width="118" height="85" viewBox="0 0 118 85" fill="none" xmlns="http://www.w3.org/2000/svg">
<path d="M67.76 84.96C63.4933 84.96 59.5467 84.1867 55.92 82.64C52.3467 81.0933 49.2 78.9333 46.48 76.16C43.8133 73.3867 41.7333 70.1333 40.24 66.4C38.7467 62.6667 38 58.5867 38 54.16C38 49.7333 38.72 45.6533 40.16 41.92C41.6533 38.1333 43.7333 34.88 46.4 32.16C49.12 29.3867 52.2933 27.2533 55.92 25.76C59.5467 24.2133 63.4933 23.44 67.76 23.44C72.0267 23.44 75.84 24.16 79.2 25.6C82.6133 27.04 85.4933 28.96 87.84 31.36C90.1867 33.7067 91.8667 36.2933 92.88 39.12L83.12 43.68C82 40.6933 80.1067 38.24 77.44 36.32C74.7733 34.3467 71.5467 33.36 67.76 33.36C64.0267 33.36 60.72 34.24 57.84 36C55.0133 37.76 52.8 40.1867 51.2 43.28C49.6533 46.3733 48.88 50 48.88 54.16C48.88 58.32 49.6533 61.9733 51.2 65.12C52.8 68.2133 55.0133 70.64 57.84 72.4C60.72 74.16 64.0267 75.04 67.76 75.04C71.5467 75.04 74.7733 74.08 77.44 72.16C80.1067 70.1867 82 67.7067 83.12 64.72L92.88 69.28C91.8667 72.1067 90.1867 74.72 87.84 77.12C85.4933 79.4667 82.6133 81.36 79.2 82.8C75.84 84.24 72.0267 84.96 67.76 84.96Z" fill="#A2A2A2"/>
<path d="M27.04 67.96C23.2533 67.96 19.7333 67.2667 16.48 65.88C13.28 64.4933 10.5067 62.5733 8.16 60.12C5.86667 57.6133 4.18667 54.7067 3.12 51.4L12.16 47.48C13.6 50.8933 15.68 53.5867 18.4 55.56C21.12 57.48 24.1867 58.44 27.6 58.44C29.52 58.44 31.1733 58.1467 32.56 57.56C34 56.92 35.0933 56.0667 35.84 55C36.64 53.9333 37.04 52.6533 37.04 51.16C37.04 49.4 36.5067 47.96 35.44 46.84C34.4267 45.6667 32.88 44.76 30.8 44.12L19.36 40.44C14.72 39 11.2267 36.84 8.88 33.96C6.53333 31.08 5.36 27.6933 5.36 23.8C5.36 20.3867 6.18667 17.3733 7.84 14.76C9.54667 12.1467 11.8933 10.12 14.88 8.68C17.92 7.18666 21.3867 6.44 25.28 6.44C28.8533 6.44 32.1333 7.08 35.12 8.36C38.1067 9.58666 40.6667 11.32 42.8 13.56C44.9867 15.7467 46.6133 18.3333 47.68 21.32L38.72 25.32C37.5467 22.3333 35.7867 20.04 33.44 18.44C31.0933 16.7867 28.3733 15.96 25.28 15.96C23.4667 15.96 21.8667 16.28 20.48 16.92C19.0933 17.5067 18 18.36 17.2 19.48C16.4533 20.5467 16.08 21.8267 16.08 23.32C16.08 24.9733 16.6133 26.44 17.68 27.72C18.7467 28.9467 20.3733 29.9067 22.56 30.6L33.52 34.04C38.2667 35.5867 41.8133 37.72 44.16 40.44C46.56 43.16 47.76 46.52 47.76 50.52C47.76 53.9333 46.88 56.9467 45.12 59.56C43.36 62.1733 40.9333 64.2267 37.84 65.72C34.7467 67.2133 31.1467 67.96 27.04 67.96Z" fill="#0B0B0B"/>
</svg>
