<svg width="469" height="130" viewBox="0 0 469 130" fill="none" xmlns="http://www.w3.org/2000/svg">
<path d="M23.92 61.5201C20.1333 61.5201 16.6133 60.8267 13.36 59.4401C10.16 58.0534 7.38667 56.1334 5.04001 53.6801C2.74667 51.1734 1.06667 48.2667 4.94719e-06 44.9601L9.04001 41.0401C10.48 44.4534 12.56 47.1467 15.28 49.1201C18 51.0401 21.0667 52.0001 24.48 52.0001C26.4 52.0001 28.0533 51.7067 29.44 51.1201C30.88 50.4801 31.9733 49.6267 32.72 48.5601C33.52 47.4934 33.92 46.2134 33.92 44.7201C33.92 42.9601 33.3867 41.5201 32.32 40.4001C31.3067 39.2267 29.76 38.3201 27.68 37.6801L16.24 34.0001C11.6 32.5601 8.10667 30.4001 5.76001 27.5201C3.41334 24.6401 2.24001 21.2534 2.24001 17.3601C2.24001 13.9467 3.06667 10.9334 4.72001 8.32005C6.42667 5.70672 8.77334 3.68006 11.76 2.24006C14.8 0.746723 18.2667 5.62668e-05 22.16 5.62668e-05C25.7333 5.62668e-05 29.0133 0.640056 32 1.92006C34.9867 3.14672 37.5467 4.88006 39.68 7.12006C41.8667 9.30672 43.4933 11.8934 44.56 14.8801L35.6 18.8801C34.4267 15.8934 32.6667 13.6001 30.32 12.0001C27.9733 10.3467 25.2533 9.52006 22.16 9.52006C20.3467 9.52006 18.7467 9.84006 17.36 10.4801C15.9733 11.0667 14.88 11.9201 14.08 13.0401C13.3333 14.1067 12.96 15.3867 12.96 16.8801C12.96 18.5334 13.4933 20.0001 14.56 21.2801C15.6267 22.5067 17.2533 23.4667 19.44 24.1601L30.4 27.6001C35.1467 29.1467 38.6933 31.2801 41.04 34.0001C43.44 36.7201 44.64 40.0801 44.64 44.0801C44.64 47.4934 43.76 50.5067 42 53.1201C40.24 55.7334 37.8133 57.7867 34.72 59.2801C31.6267 60.7734 28.0267 61.5201 23.92 61.5201ZM54.4369 60.5601V0.960053H62.9169L95.7169 45.1201L91.3169 46.0001V0.960053H102.197V60.5601H93.6369L61.3169 16.0801L65.3169 15.2001V60.5601H54.4369ZM113.734 60.5601V0.960053H124.614V60.5601H113.734ZM136.078 60.5601V0.960053H158.318C162.371 0.960053 165.944 1.70672 169.038 3.20006C172.184 4.64006 174.638 6.77339 176.398 9.60006C178.158 12.3734 179.038 15.7601 179.038 19.7601C179.038 23.7067 178.131 27.0934 176.318 29.9201C174.558 32.6934 172.131 34.8267 169.038 36.3201C165.944 37.8134 162.371 38.5601 158.318 38.5601H146.958V60.5601H136.078ZM146.958 28.9601H158.478C160.451 28.9601 162.158 28.5867 163.598 27.8401C165.038 27.0401 166.158 25.9467 166.958 24.5601C167.758 23.1734 168.158 21.5734 168.158 19.7601C168.158 17.8934 167.758 16.2934 166.958 14.9601C166.158 13.5734 165.038 12.5067 163.598 11.7601C162.158 10.9601 160.451 10.5601 158.478 10.5601H146.958V28.9601ZM187.953 60.5601V0.960053H227.553V10.5601H198.833V25.8401H225.953V35.4401H198.833V50.9601H227.553V60.5601H187.953ZM235.531 60.5601V0.960053H257.691C261.744 0.960053 265.317 1.70672 268.411 3.20006C271.557 4.64006 274.011 6.77339 275.771 9.60006C277.531 12.3734 278.411 15.7601 278.411 19.7601C278.411 23.8667 277.424 27.3601 275.451 30.2401C273.531 33.1201 270.917 35.2534 267.611 36.6401L281.291 60.5601H268.971L254.331 34.4001L261.371 38.5601H246.411V60.5601H235.531ZM246.411 28.9601H257.851C259.824 28.9601 261.531 28.5867 262.971 27.8401C264.411 27.0401 265.531 25.9467 266.331 24.5601C267.131 23.1734 267.531 21.5734 267.531 19.7601C267.531 17.8934 267.131 16.2934 266.331 14.9601C265.531 13.5734 264.411 12.5067 262.971 11.7601C261.531 10.9601 259.824 10.5601 257.851 10.5601H246.411V28.9601Z" fill="#0B0B0B"/>
<path d="M101.734 129.52C97.4671 129.52 93.5204 128.747 89.8938 127.2C86.3204 125.653 83.1738 123.493 80.4538 120.72C77.7871 117.947 75.7071 114.693 74.2138 110.96C72.7204 107.227 71.9738 103.147 71.9738 98.7201C71.9738 94.2934 72.6938 90.2134 74.1338 86.4801C75.6271 82.6934 77.7071 79.4401 80.3738 76.7201C83.0938 73.9467 86.2671 71.8134 89.8938 70.3201C93.5204 68.7734 97.4671 68.0001 101.734 68.0001C106 68.0001 109.814 68.7201 113.174 70.1601C116.587 71.6001 119.467 73.5201 121.814 75.9201C124.16 78.2667 125.84 80.8534 126.854 83.6801L117.094 88.2401C115.974 85.2534 114.08 82.8001 111.414 80.8801C108.747 78.9067 105.52 77.9201 101.734 77.9201C98.0004 77.9201 94.6938 78.8001 91.8138 80.5601C88.9871 82.3201 86.7738 84.7467 85.1738 87.8401C83.6271 90.9334 82.8538 94.5601 82.8538 98.7201C82.8538 102.88 83.6271 106.533 85.1738 109.68C86.7738 112.773 88.9871 115.2 91.8138 116.96C94.6938 118.72 98.0004 119.6 101.734 119.6C105.52 119.6 108.747 118.64 111.414 116.72C114.08 114.747 115.974 112.267 117.094 109.28L126.854 113.84C125.84 116.667 124.16 119.28 121.814 121.68C119.467 124.027 116.587 125.92 113.174 127.36C109.814 128.8 106 129.52 101.734 129.52ZM165.047 129.52C160.674 129.52 156.594 128.747 152.807 127.2C149.02 125.653 145.714 123.493 142.887 120.72C140.06 117.947 137.847 114.693 136.247 110.96C134.7 107.173 133.927 103.093 133.927 98.7201C133.927 94.2934 134.7 90.2134 136.247 86.4801C137.794 82.7467 139.98 79.4934 142.807 76.7201C145.634 73.9467 148.94 71.8134 152.727 70.3201C156.514 68.7734 160.62 68.0001 165.047 68.0001C169.474 68.0001 173.58 68.7734 177.367 70.3201C181.154 71.8667 184.46 74.0267 187.287 76.8001C190.114 79.5201 192.3 82.7467 193.847 86.4801C195.447 90.2134 196.247 94.2934 196.247 98.7201C196.247 103.093 195.447 107.173 193.847 110.96C192.247 114.693 190.034 117.947 187.207 120.72C184.38 123.493 181.074 125.653 177.287 127.2C173.554 128.747 169.474 129.52 165.047 129.52ZM165.047 119.6C167.98 119.6 170.674 119.093 173.127 118.08C175.58 117.013 177.714 115.547 179.527 113.68C181.394 111.813 182.807 109.6 183.767 107.04C184.78 104.48 185.287 101.707 185.287 98.7201C185.287 95.7334 184.78 92.9867 183.767 90.4801C182.807 87.9201 181.394 85.7067 179.527 83.8401C177.714 81.9201 175.58 80.4534 173.127 79.4401C170.674 78.4267 167.98 77.9201 165.047 77.9201C162.167 77.9201 159.5 78.4267 157.047 79.4401C154.594 80.4534 152.434 81.9201 150.567 83.8401C148.754 85.7067 147.34 87.9201 146.327 90.4801C145.314 92.9867 144.807 95.7334 144.807 98.7201C144.807 101.707 145.314 104.48 146.327 107.04C147.34 109.6 148.754 111.813 150.567 113.68C152.434 115.547 154.594 117.013 157.047 118.08C159.5 119.093 162.167 119.6 165.047 119.6ZM205.921 128.56V68.9601H214.401L247.201 113.12L242.801 114V68.9601H253.681V128.56H245.121L212.801 84.0801L216.801 83.2001V128.56H205.921ZM275.778 128.56V78.5601H260.338V68.9601H301.938V78.5601H286.738V128.56H275.778ZM308.578 128.56V68.9601H330.738C334.791 68.9601 338.364 69.7067 341.458 71.2001C344.604 72.6401 347.058 74.7734 348.818 77.6001C350.578 80.3734 351.458 83.7601 351.458 87.7601C351.458 91.8667 350.471 95.3601 348.498 98.2401C346.578 101.12 343.964 103.253 340.658 104.64L354.338 128.56H342.018L327.378 102.4L334.418 106.56H319.458V128.56H308.578ZM319.458 96.9601H330.898C332.871 96.9601 334.578 96.5867 336.018 95.8401C337.458 95.0401 338.578 93.9467 339.378 92.5601C340.178 91.1734 340.578 89.5734 340.578 87.7601C340.578 85.8934 340.178 84.2934 339.378 82.9601C338.578 81.5734 337.458 80.5067 336.018 79.7601C334.578 78.9601 332.871 78.5601 330.898 78.5601H319.458V96.9601ZM390.828 129.52C386.455 129.52 382.375 128.747 378.588 127.2C374.801 125.653 371.495 123.493 368.668 120.72C365.841 117.947 363.628 114.693 362.028 110.96C360.481 107.173 359.708 103.093 359.708 98.7201C359.708 94.2934 360.481 90.2134 362.028 86.4801C363.575 82.7467 365.761 79.4934 368.588 76.7201C371.415 73.9467 374.721 71.8134 378.508 70.3201C382.295 68.7734 386.401 68.0001 390.828 68.0001C395.255 68.0001 399.361 68.7734 403.148 70.3201C406.935 71.8667 410.241 74.0267 413.068 76.8001C415.895 79.5201 418.081 82.7467 419.628 86.4801C421.228 90.2134 422.028 94.2934 422.028 98.7201C422.028 103.093 421.228 107.173 419.628 110.96C418.028 114.693 415.815 117.947 412.988 120.72C410.161 123.493 406.855 125.653 403.068 127.2C399.335 128.747 395.255 129.52 390.828 129.52ZM390.828 119.6C393.761 119.6 396.455 119.093 398.908 118.08C401.361 117.013 403.495 115.547 405.308 113.68C407.175 111.813 408.588 109.6 409.548 107.04C410.561 104.48 411.068 101.707 411.068 98.7201C411.068 95.7334 410.561 92.9867 409.548 90.4801C408.588 87.9201 407.175 85.7067 405.308 83.8401C403.495 81.9201 401.361 80.4534 398.908 79.4401C396.455 78.4267 393.761 77.9201 390.828 77.9201C387.948 77.9201 385.281 78.4267 382.828 79.4401C380.375 80.4534 378.215 81.9201 376.348 83.8401C374.535 85.7067 373.121 87.9201 372.108 90.4801C371.095 92.9867 370.588 95.7334 370.588 98.7201C370.588 101.707 371.095 104.48 372.108 107.04C373.121 109.6 374.535 111.813 376.348 113.68C378.215 115.547 380.375 117.013 382.828 118.08C385.281 119.093 387.948 119.6 390.828 119.6ZM431.703 128.56V68.9601H442.583V118.96H468.103V128.56H431.703Z" fill="#6D6D6D"/>
</svg>
